<?xml version="1.0" encoding="UTF-8"?>
<svg width="162px" height="162px" viewBox="0 0 162 162" version="1.1" xmlns="http://www.w3.org/2000/svg" xmlns:xlink="http://www.w3.org/1999/xlink">
    <title>Combined Shape</title>
    <g id="Page-1" stroke="none" stroke-width="1" fill="none" fill-rule="evenodd">
        <g id="SpaceX-Dashboard-Challenge-2-Copy-4" transform="translate(-947.000000, -252.000000)" fill="#FCDA23" fill-rule="nonzero">
            <path d="M1028,384.545455 C1032.06682,384.545455 1035.36364,387.842267 1035.36364,391.909091 L1035.36364,391.909091 L1035.36364,406.636364 C1035.36364,410.703188 1032.06682,414 1028,414 C1023.93318,414 1020.63636,410.703188 1020.63636,406.636364 L1020.63636,406.636364 L1020.63636,391.909091 C1020.63636,387.842267 1023.93318,384.545455 1028,384.545455 Z M981.660636,368.927182 C983.509457,367.012956 986.247283,366.245253 988.821827,366.919139 C991.396371,367.593026 993.406974,369.603629 994.080861,372.178173 C994.754747,374.752717 993.987044,377.490543 992.072818,379.339364 L992.072818,379.339364 L981.459195,389.95224 C979.616465,391.718768 976.982042,392.409407 974.499446,391.759588 C971.924902,391.085702 969.914298,389.075098 969.240412,386.500554 C968.566525,383.92601 969.334229,381.188185 971.248455,379.339364 Z M1067.17817,366.919139 C1069.75272,366.245253 1072.49054,367.012956 1074.33936,368.927182 L1074.33936,368.927182 L1084.75155,379.339364 C1087.54216,382.228699 1087.50225,386.821442 1084.66185,389.661846 C1081.82144,392.502249 1077.2287,392.542159 1074.33936,389.751545 L1074.33936,389.751545 L1063.92718,379.339364 C1062.01296,377.490543 1061.24525,374.752717 1061.91914,372.178173 C1062.59303,369.603629 1064.60363,367.593026 1067.17817,366.919139 Z M1028,288.818182 C1052.40094,288.818182 1072.18182,308.599056 1072.18182,333 C1072.18182,357.400944 1052.40094,377.181818 1028,377.181818 C1003.59906,377.181818 983.818182,357.400944 983.818182,333 C983.818182,308.599056 1003.59906,288.818182 1028,288.818182 Z M1101.63636,325.636364 C1105.70319,325.636364 1109,328.933176 1109,333 C1109,337.066824 1105.70319,340.363636 1101.63636,340.363636 L1101.63636,340.363636 L1086.90909,340.363636 C1082.84227,340.363636 1079.54545,337.066824 1079.54545,333 C1079.54545,328.933176 1082.84227,325.636364 1086.90909,325.636364 L1086.90909,325.636364 Z M969.090909,325.636364 C973.157733,325.636364 976.454545,328.933176 976.454545,333 C976.454545,337.066824 973.157733,340.363636 969.090909,340.363636 L969.090909,340.363636 L954.363636,340.363636 C950.296812,340.363636 947,337.066824 947,333 C947,328.933176 950.296812,325.636364 954.363636,325.636364 L954.363636,325.636364 Z M971.338154,276.338154 C974.178558,273.497751 978.771301,273.457841 981.660636,276.248455 L981.660636,276.248455 L992.072818,286.660636 C993.987044,288.509457 994.754747,291.247283 994.080861,293.821827 C993.406974,296.396371 991.396371,298.406974 988.821827,299.080861 C986.247283,299.754747 983.509457,298.987044 981.660636,297.072818 L981.660636,297.072818 L971.248455,286.660636 C968.457841,283.771301 968.497751,279.178558 971.338154,276.338154 Z M1070.02427,273.199909 C1071.87309,271.285683 1074.61092,270.51798 1077.18546,271.191866 C1079.76001,271.865753 1081.77061,273.876357 1082.4445,276.450901 C1083.11838,279.025445 1082.35068,281.76327 1080.43645,283.612091 L1080.43645,283.612091 L1070.02427,294.024273 C1068.64364,295.405318 1066.77098,296.181401 1064.81818,296.181818 C1061.84036,296.181182 1059.15603,294.387097 1058.01655,291.635911 C1056.87708,288.884724 1057.50677,285.718049 1059.61209,283.612091 L1059.61209,283.612091 Z M1028,252 C1032.06682,252 1035.36364,255.296812 1035.36364,259.363636 L1035.36364,259.363636 L1035.36364,274.090909 C1035.36364,278.157733 1032.06682,281.454545 1028,281.454545 C1023.93318,281.454545 1020.63636,278.157733 1020.63636,274.090909 L1020.63636,274.090909 L1020.63636,259.363636 C1020.63636,255.296812 1023.93318,252 1028,252 Z" id="Combined-Shape"></path>
        </g>
    </g>
</svg>