<?xml version="1.0" encoding="UTF-8"?>
<svg width="162px" height="163px" viewBox="0 0 162 163" version="1.1" xmlns="http://www.w3.org/2000/svg" xmlns:xlink="http://www.w3.org/1999/xlink">
    <title>Path</title>
    <g id="Page-1" stroke="none" stroke-width="1" fill="none" fill-rule="evenodd">
        <g id="SpaceX-Dashboard-Challenge-2-Copy-2" transform="translate(-947.000000, -248.000000)" fill="#28B3FF" fill-rule="nonzero">
            <path d="M1105.66641,330.138741 C1103.35205,328.645922 1100.39894,328.566262 1098.00747,329.932141 C1077.80971,341.459358 1052.39651,338.048459 1035.95314,321.603356 C1019.50976,305.158252 1016.10152,279.744695 1027.63086,259.548146 C1028.99543,257.155823 1028.91404,254.202652 1027.41979,251.889113 C1025.92553,249.575574 1023.26716,248.286816 1020.52531,248.546727 C977.874198,252.579079 945.701551,289.066373 947.040297,331.886754 C948.379042,374.707135 982.768121,409.113429 1025.58783,410.473604 C1068.40753,411.833779 1104.91092,379.679396 1108.96462,337.030307 C1109.23271,334.298452 1107.96213,331.643591 1105.66641,330.138741 Z" id="Path"></path>
        </g>
    </g>
</svg>