<?xml version="1.0" encoding="UTF-8"?>
<svg width="162px" height="92px" viewBox="0 0 162 92" version="1.1" xmlns="http://www.w3.org/2000/svg" xmlns:xlink="http://www.w3.org/1999/xlink">
    <title>Rectangle</title>
    <defs>
        <path d="M81,36.8181818 C105.400944,36.8181818 125.181818,56.5990556 125.181818,81 C125.181818,84.7979818 124.702595,88.484035 123.801317,92.0009905 L38.1986828,92.0009905 C37.2974052,88.484035 36.8181818,84.7979818 36.8181818,81 C36.8181818,56.5990556 56.5990556,36.8181818 81,36.8181818 Z M154.636364,73.6363636 C158.703188,73.6363636 162,76.9331759 162,81 C162,84.9854876 158.833741,88.2314559 154.879429,88.3597004 L154.636364,88.3636364 L139.909091,88.3636364 C135.842267,88.3636364 132.545455,85.0668241 132.545455,81 C132.545455,77.0145124 135.711713,73.7685441 139.666026,73.6402996 L139.909091,73.6363636 L154.636364,73.6363636 Z M22.0909091,73.6363636 C26.1577332,73.6363636 29.4545455,76.9331759 29.4545455,81 C29.4545455,84.9854876 26.2882869,88.2314559 22.3339743,88.3597004 L22.0909091,88.3636364 L7.36363636,88.3636364 C3.2968123,88.3636364 -4.20996571e-13,85.0668241 -4.20996571e-13,81 C-4.20996571e-13,77.0145124 3.16625853,73.7685441 7.12057115,73.6402996 L7.36363636,73.6363636 L22.0909091,73.6363636 Z M34.4655284,24.0666067 L34.6606364,24.2484545 L45.0728182,34.6606364 C46.9870439,36.5094575 47.7547473,39.2472827 47.0808609,41.8218267 C46.4069745,44.3963707 44.3963707,46.4069745 41.8218267,47.0808609 C39.3392307,47.7306799 36.7048081,47.0400411 34.8620782,45.2735132 L34.6606364,45.0728182 L24.2484545,34.6606364 C21.457841,31.7713009 21.4977507,27.1785576 24.3381541,24.3381541 C27.1154375,21.5608708 31.5680443,21.4609977 34.4655284,24.0666067 Z M130.185463,19.1918664 C132.760007,19.8657528 134.770611,21.8763566 135.444497,24.4509006 C136.094316,26.9334966 135.403677,29.5679191 133.63715,31.4106491 L133.436455,31.6120909 L123.024273,42.0242727 C121.643644,43.4053181 119.77098,44.1814011 117.818182,44.1818182 C114.840357,44.1811823 112.156031,42.3870975 111.016553,39.6359108 C109.913832,36.9734721 110.467985,33.9219179 112.412966,31.819155 L112.612091,31.6120909 L123.024273,21.1999091 C124.873094,19.2856833 127.610919,18.51798 130.185463,19.1918664 Z M81,4.08562073e-14 C84.9854876,4.08562073e-14 88.2314559,3.16625853 88.3597004,7.12057115 L88.3636364,7.36363636 L88.3636364,22.0909091 C88.3636364,26.1577332 85.0668241,29.4545455 81,29.4545455 C77.0145124,29.4545455 73.7685441,26.2882869 73.6402996,22.3339743 L73.6363636,22.0909091 L73.6363636,7.36363636 C73.6363636,3.2968123 76.9331759,4.08562073e-14 81,4.08562073e-14 Z" id="path-1"></path>
    </defs>
    <g id="Page-1" stroke="none" stroke-width="1" fill="none" fill-rule="evenodd">
        <g id="SpaceX-Dashboard-Challenge-2-Copy-5" transform="translate(-947.000000, -287.000000)">
            <g id="Rectangle" transform="translate(947.000000, 287.000000)">
                <mask id="mask-2" fill="white">
                    <use xlink:href="#path-1"></use>
                </mask>
                <use id="Combined-Shape" fill="#FCDA23" fill-rule="nonzero" xlink:href="#path-1"></use>
            </g>
        </g>
    </g>
</svg>